<mxfile host="app.diagrams.net" modified="2021-08-16T13:29:46.923Z" agent="5.0 (Windows NT 10.0; Win64; x64) AppleWebKit/537.36 (KHTML, like Gecko) Chrome/80.0.3987.132 Safari/537.36" etag="SibaSk5HiJXMPGmT5VnY" version="14.9.6" type="github">
  <diagram id="prtHgNgQTEPvFCAcTncT" name="Page-1">
    <mxGraphModel dx="1422" dy="762" grid="1" gridSize="10" guides="1" tooltips="1" connect="1" arrows="1" fold="1" page="1" pageScale="1" pageWidth="827" pageHeight="1169" math="0" shadow="0">
      <root>
        <mxCell id="0" />
        <mxCell id="1" parent="0" />
        <mxCell id="8IpB800GrsxZEf558MQ5-1" value="" style="rounded=0;whiteSpace=wrap;html=1;fillColor=#dae8fc;strokeColor=#6c8ebf;" vertex="1" parent="1">
          <mxGeometry x="80" y="120" width="160" height="400" as="geometry" />
        </mxCell>
        <mxCell id="8IpB800GrsxZEf558MQ5-2" value="" style="rounded=0;whiteSpace=wrap;html=1;fillColor=#f8cecc;strokeColor=#b85450;" vertex="1" parent="1">
          <mxGeometry x="320" y="120" width="240" height="400" as="geometry" />
        </mxCell>
        <mxCell id="8IpB800GrsxZEf558MQ5-3" value="工作内存" style="rounded=0;whiteSpace=wrap;html=1;fillColor=#dae8fc;strokeColor=#6c8ebf;" vertex="1" parent="1">
          <mxGeometry x="90" y="40" width="120" height="40" as="geometry" />
        </mxCell>
        <mxCell id="8IpB800GrsxZEf558MQ5-4" value="主内存" style="rounded=0;whiteSpace=wrap;html=1;fillColor=#f8cecc;strokeColor=#b85450;" vertex="1" parent="1">
          <mxGeometry x="400" y="40" width="120" height="40" as="geometry" />
        </mxCell>
        <mxCell id="8IpB800GrsxZEf558MQ5-5" value="assign" style="rounded=0;whiteSpace=wrap;html=1;" vertex="1" parent="1">
          <mxGeometry x="100" y="340" width="120" height="40" as="geometry" />
        </mxCell>
        <mxCell id="8IpB800GrsxZEf558MQ5-6" value="load" style="rounded=0;whiteSpace=wrap;html=1;" vertex="1" parent="1">
          <mxGeometry x="100" y="270" width="120" height="40" as="geometry" />
        </mxCell>
        <mxCell id="8IpB800GrsxZEf558MQ5-11" style="edgeStyle=orthogonalEdgeStyle;rounded=0;orthogonalLoop=1;jettySize=auto;html=1;" edge="1" parent="1" source="8IpB800GrsxZEf558MQ5-7" target="8IpB800GrsxZEf558MQ5-6">
          <mxGeometry relative="1" as="geometry" />
        </mxCell>
        <mxCell id="8IpB800GrsxZEf558MQ5-7" value="read" style="rounded=0;whiteSpace=wrap;html=1;" vertex="1" parent="1">
          <mxGeometry x="400" y="270" width="120" height="40" as="geometry" />
        </mxCell>
        <mxCell id="8IpB800GrsxZEf558MQ5-8" value="unlock" style="rounded=0;whiteSpace=wrap;html=1;" vertex="1" parent="1">
          <mxGeometry x="400" y="200" width="120" height="40" as="geometry" />
        </mxCell>
        <mxCell id="8IpB800GrsxZEf558MQ5-9" value="lock" style="rounded=0;whiteSpace=wrap;html=1;" vertex="1" parent="1">
          <mxGeometry x="400" y="140" width="120" height="40" as="geometry" />
        </mxCell>
        <mxCell id="8IpB800GrsxZEf558MQ5-17" style="edgeStyle=orthogonalEdgeStyle;rounded=0;orthogonalLoop=1;jettySize=auto;html=1;entryX=1;entryY=0.5;entryDx=0;entryDy=0;exitX=0;exitY=0.25;exitDx=0;exitDy=0;" edge="1" parent="1" source="8IpB800GrsxZEf558MQ5-14" target="8IpB800GrsxZEf558MQ5-5">
          <mxGeometry relative="1" as="geometry" />
        </mxCell>
        <mxCell id="8IpB800GrsxZEf558MQ5-14" value="执行引擎" style="rounded=0;whiteSpace=wrap;html=1;" vertex="1" parent="1">
          <mxGeometry x="340" y="320" width="20" height="140" as="geometry" />
        </mxCell>
        <mxCell id="8IpB800GrsxZEf558MQ5-18" style="edgeStyle=orthogonalEdgeStyle;rounded=0;orthogonalLoop=1;jettySize=auto;html=1;entryX=0;entryY=0.75;entryDx=0;entryDy=0;" edge="1" parent="1" source="8IpB800GrsxZEf558MQ5-16" target="8IpB800GrsxZEf558MQ5-14">
          <mxGeometry relative="1" as="geometry" />
        </mxCell>
        <mxCell id="8IpB800GrsxZEf558MQ5-16" value="use" style="rounded=0;whiteSpace=wrap;html=1;" vertex="1" parent="1">
          <mxGeometry x="100" y="400" width="120" height="40" as="geometry" />
        </mxCell>
        <mxCell id="8IpB800GrsxZEf558MQ5-21" style="edgeStyle=orthogonalEdgeStyle;rounded=0;orthogonalLoop=1;jettySize=auto;html=1;" edge="1" parent="1" source="8IpB800GrsxZEf558MQ5-19" target="8IpB800GrsxZEf558MQ5-20">
          <mxGeometry relative="1" as="geometry" />
        </mxCell>
        <mxCell id="8IpB800GrsxZEf558MQ5-19" value="store" style="rounded=0;whiteSpace=wrap;html=1;" vertex="1" parent="1">
          <mxGeometry x="100" y="460" width="120" height="40" as="geometry" />
        </mxCell>
        <mxCell id="8IpB800GrsxZEf558MQ5-20" value="write" style="rounded=0;whiteSpace=wrap;html=1;" vertex="1" parent="1">
          <mxGeometry x="400" y="460" width="120" height="40" as="geometry" />
        </mxCell>
      </root>
    </mxGraphModel>
  </diagram>
</mxfile>
